<mxfile host="Electron" modified="2023-09-12T12:09:18.224Z" agent="Mozilla/5.0 (Macintosh; Intel Mac OS X 10_15_7) AppleWebKit/537.36 (KHTML, like Gecko) draw.io/21.6.8 Chrome/114.0.5735.289 Electron/25.5.0 Safari/537.36" etag="BoPn9wTqR9hfQE8jFUv0" version="21.6.8" type="device">
  <diagram name="페이지-1" id="TboPy5R5hTiziKhDRtX-">
    <mxGraphModel dx="2848" dy="545" grid="1" gridSize="10" guides="1" tooltips="1" connect="1" arrows="1" fold="1" page="1" pageScale="1" pageWidth="827" pageHeight="1169" math="0" shadow="0">
      <root>
        <mxCell id="0" />
        <mxCell id="1" parent="0" />
        <mxCell id="_canREEYFn-2wOpyXf04-1" value="" style="rounded=0;whiteSpace=wrap;html=1;" vertex="1" parent="1">
          <mxGeometry x="-827" width="747" height="640" as="geometry" />
        </mxCell>
        <mxCell id="_canREEYFn-2wOpyXf04-2" value="" style="rounded=0;whiteSpace=wrap;html=1;" vertex="1" parent="1">
          <mxGeometry x="-1440" width="521" height="320" as="geometry" />
        </mxCell>
        <mxCell id="_canREEYFn-2wOpyXf04-3" value="" style="shape=folder;fontStyle=1;spacingTop=10;tabWidth=80;tabHeight=30;tabPosition=left;html=1;whiteSpace=wrap;" vertex="1" parent="1">
          <mxGeometry x="-680" y="40" width="550" height="190" as="geometry" />
        </mxCell>
        <mxCell id="_canREEYFn-2wOpyXf04-4" value="&lt;b&gt;framework&lt;/b&gt;" style="text;html=1;strokeColor=none;fillColor=none;align=center;verticalAlign=middle;whiteSpace=wrap;rounded=0;" vertex="1" parent="1">
          <mxGeometry x="-680" y="40" width="80" height="30" as="geometry" />
        </mxCell>
        <mxCell id="_canREEYFn-2wOpyXf04-5" value="&lt;i&gt;&amp;lt;&amp;lt;abstract&amp;gt;&amp;gt;&lt;br&gt;Factory&lt;br&gt;&lt;/i&gt;" style="swimlane;fontStyle=1;align=center;verticalAlign=top;childLayout=stackLayout;horizontal=1;startSize=40;horizontalStack=0;resizeParent=1;resizeParentMax=0;resizeLast=0;collapsible=1;marginBottom=0;whiteSpace=wrap;html=1;" vertex="1" parent="1">
          <mxGeometry x="-640" y="100" width="220" height="104" as="geometry" />
        </mxCell>
        <mxCell id="_canREEYFn-2wOpyXf04-6" value="" style="line;strokeWidth=1;fillColor=none;align=left;verticalAlign=middle;spacingTop=-1;spacingLeft=3;spacingRight=3;rotatable=0;labelPosition=right;points=[];portConstraint=eastwest;strokeColor=inherit;" vertex="1" parent="_canREEYFn-2wOpyXf04-5">
          <mxGeometry y="40" width="220" height="8" as="geometry" />
        </mxCell>
        <mxCell id="_canREEYFn-2wOpyXf04-7" value="+ create(String name): Product&lt;br&gt;&lt;i&gt;# createProduct(String name): Product&lt;/i&gt;" style="text;strokeColor=none;fillColor=none;align=left;verticalAlign=top;spacingLeft=4;spacingRight=4;overflow=hidden;rotatable=0;points=[[0,0.5],[1,0.5]];portConstraint=eastwest;whiteSpace=wrap;html=1;" vertex="1" parent="_canREEYFn-2wOpyXf04-5">
          <mxGeometry y="48" width="220" height="56" as="geometry" />
        </mxCell>
        <mxCell id="_canREEYFn-2wOpyXf04-8" value="&lt;i&gt;&amp;lt;&amp;lt;abstract&amp;gt;&amp;gt;&lt;br&gt;Product&lt;br&gt;&lt;/i&gt;" style="swimlane;fontStyle=1;align=center;verticalAlign=top;childLayout=stackLayout;horizontal=1;startSize=40;horizontalStack=0;resizeParent=1;resizeParentMax=0;resizeLast=0;collapsible=1;marginBottom=0;whiteSpace=wrap;html=1;" vertex="1" parent="1">
          <mxGeometry x="-340" y="100" width="190" height="104" as="geometry" />
        </mxCell>
        <mxCell id="_canREEYFn-2wOpyXf04-9" value="" style="line;strokeWidth=1;fillColor=none;align=left;verticalAlign=middle;spacingTop=-1;spacingLeft=3;spacingRight=3;rotatable=0;labelPosition=right;points=[];portConstraint=eastwest;strokeColor=inherit;" vertex="1" parent="_canREEYFn-2wOpyXf04-8">
          <mxGeometry y="40" width="190" height="8" as="geometry" />
        </mxCell>
        <mxCell id="_canREEYFn-2wOpyXf04-10" value="&lt;i&gt;+ packaging(): void&lt;br&gt;+ deliver(String destination): void&lt;br&gt;&lt;/i&gt;" style="text;strokeColor=none;fillColor=none;align=left;verticalAlign=top;spacingLeft=4;spacingRight=4;overflow=hidden;rotatable=0;points=[[0,0.5],[1,0.5]];portConstraint=eastwest;whiteSpace=wrap;html=1;" vertex="1" parent="_canREEYFn-2wOpyXf04-8">
          <mxGeometry y="48" width="190" height="56" as="geometry" />
        </mxCell>
        <mxCell id="_canREEYFn-2wOpyXf04-11" value="" style="endArrow=open;endFill=1;endSize=12;html=1;rounded=0;" edge="1" parent="1">
          <mxGeometry width="160" relative="1" as="geometry">
            <mxPoint x="-420" y="144.32999999999998" as="sourcePoint" />
            <mxPoint x="-340" y="145.32999999999998" as="targetPoint" />
          </mxGeometry>
        </mxCell>
        <mxCell id="_canREEYFn-2wOpyXf04-12" value="Creates &amp;gt;" style="text;html=1;strokeColor=none;fillColor=none;align=center;verticalAlign=middle;whiteSpace=wrap;rounded=0;" vertex="1" parent="1">
          <mxGeometry x="-420" y="110" width="90" height="30" as="geometry" />
        </mxCell>
        <mxCell id="_canREEYFn-2wOpyXf04-13" value="" style="shape=folder;fontStyle=1;spacingTop=10;tabWidth=100;tabHeight=30;tabPosition=left;html=1;whiteSpace=wrap;" vertex="1" parent="1">
          <mxGeometry x="-800" y="240" width="690" height="380" as="geometry" />
        </mxCell>
        <mxCell id="_canREEYFn-2wOpyXf04-14" value="&lt;b&gt;concreteProduct&lt;/b&gt;" style="text;html=1;strokeColor=none;fillColor=none;align=center;verticalAlign=middle;whiteSpace=wrap;rounded=0;" vertex="1" parent="1">
          <mxGeometry x="-800" y="240" width="100" height="30" as="geometry" />
        </mxCell>
        <mxCell id="_canREEYFn-2wOpyXf04-15" value="RamenFactory" style="swimlane;fontStyle=1;align=center;verticalAlign=top;childLayout=stackLayout;horizontal=1;startSize=26;horizontalStack=0;resizeParent=1;resizeParentMax=0;resizeLast=0;collapsible=1;marginBottom=0;whiteSpace=wrap;html=1;" vertex="1" parent="1">
          <mxGeometry x="-640" y="360" width="220" height="80" as="geometry" />
        </mxCell>
        <mxCell id="_canREEYFn-2wOpyXf04-16" value="" style="line;strokeWidth=1;fillColor=none;align=left;verticalAlign=middle;spacingTop=-1;spacingLeft=3;spacingRight=3;rotatable=0;labelPosition=right;points=[];portConstraint=eastwest;strokeColor=inherit;" vertex="1" parent="_canREEYFn-2wOpyXf04-15">
          <mxGeometry y="26" width="220" height="8" as="geometry" />
        </mxCell>
        <mxCell id="_canREEYFn-2wOpyXf04-17" value="# createProduct(String name): Product" style="text;strokeColor=none;fillColor=none;align=left;verticalAlign=top;spacingLeft=4;spacingRight=4;overflow=hidden;rotatable=0;points=[[0,0.5],[1,0.5]];portConstraint=eastwest;whiteSpace=wrap;html=1;" vertex="1" parent="_canREEYFn-2wOpyXf04-15">
          <mxGeometry y="34" width="220" height="46" as="geometry" />
        </mxCell>
        <mxCell id="_canREEYFn-2wOpyXf04-18" value="Ramen" style="swimlane;fontStyle=1;align=center;verticalAlign=top;childLayout=stackLayout;horizontal=1;startSize=26;horizontalStack=0;resizeParent=1;resizeParentMax=0;resizeLast=0;collapsible=1;marginBottom=0;whiteSpace=wrap;html=1;" vertex="1" parent="1">
          <mxGeometry x="-360" y="360" width="190" height="110" as="geometry" />
        </mxCell>
        <mxCell id="_canREEYFn-2wOpyXf04-19" value="- name: String" style="text;strokeColor=none;fillColor=none;align=left;verticalAlign=top;spacingLeft=4;spacingRight=4;overflow=hidden;rotatable=0;points=[[0,0.5],[1,0.5]];portConstraint=eastwest;whiteSpace=wrap;html=1;" vertex="1" parent="_canREEYFn-2wOpyXf04-18">
          <mxGeometry y="26" width="190" height="26" as="geometry" />
        </mxCell>
        <mxCell id="_canREEYFn-2wOpyXf04-20" value="" style="line;strokeWidth=1;fillColor=none;align=left;verticalAlign=middle;spacingTop=-1;spacingLeft=3;spacingRight=3;rotatable=0;labelPosition=right;points=[];portConstraint=eastwest;strokeColor=inherit;" vertex="1" parent="_canREEYFn-2wOpyXf04-18">
          <mxGeometry y="52" width="190" height="8" as="geometry" />
        </mxCell>
        <mxCell id="_canREEYFn-2wOpyXf04-21" value="+ ShinRamen()&lt;br&gt;+ packaging(): void&lt;br&gt;+ deliver(String destination): void" style="text;strokeColor=none;fillColor=none;align=left;verticalAlign=top;spacingLeft=4;spacingRight=4;overflow=hidden;rotatable=0;points=[[0,0.5],[1,0.5]];portConstraint=eastwest;whiteSpace=wrap;html=1;" vertex="1" parent="_canREEYFn-2wOpyXf04-18">
          <mxGeometry y="60" width="190" height="50" as="geometry" />
        </mxCell>
        <mxCell id="_canREEYFn-2wOpyXf04-22" value="" style="endArrow=none;html=1;rounded=0;" edge="1" parent="1">
          <mxGeometry width="50" height="50" relative="1" as="geometry">
            <mxPoint x="-680" y="400.00000000000006" as="sourcePoint" />
            <mxPoint x="-640" y="400.00000000000006" as="targetPoint" />
          </mxGeometry>
        </mxCell>
        <mxCell id="_canREEYFn-2wOpyXf04-23" value="" style="endArrow=none;html=1;rounded=0;" edge="1" parent="1">
          <mxGeometry width="50" height="50" relative="1" as="geometry">
            <mxPoint x="-680" y="280" as="sourcePoint" />
            <mxPoint x="-680" y="400" as="targetPoint" />
          </mxGeometry>
        </mxCell>
        <mxCell id="_canREEYFn-2wOpyXf04-24" value="" style="endArrow=none;html=1;rounded=0;" edge="1" parent="1">
          <mxGeometry width="50" height="50" relative="1" as="geometry">
            <mxPoint x="-680" y="280" as="sourcePoint" />
            <mxPoint x="-560" y="280" as="targetPoint" />
          </mxGeometry>
        </mxCell>
        <mxCell id="_canREEYFn-2wOpyXf04-25" value="Extends" style="endArrow=block;endSize=16;endFill=0;html=1;rounded=0;" edge="1" parent="1">
          <mxGeometry width="160" relative="1" as="geometry">
            <mxPoint x="-560" y="280" as="sourcePoint" />
            <mxPoint x="-560.53" y="205" as="targetPoint" />
          </mxGeometry>
        </mxCell>
        <mxCell id="_canREEYFn-2wOpyXf04-26" value="" style="endArrow=none;html=1;rounded=0;" edge="1" parent="1">
          <mxGeometry width="50" height="50" relative="1" as="geometry">
            <mxPoint x="-140" y="280" as="sourcePoint" />
            <mxPoint x="-140" y="420" as="targetPoint" />
          </mxGeometry>
        </mxCell>
        <mxCell id="_canREEYFn-2wOpyXf04-27" value="" style="endArrow=none;html=1;rounded=0;" edge="1" parent="1">
          <mxGeometry width="50" height="50" relative="1" as="geometry">
            <mxPoint x="-170" y="415" as="sourcePoint" />
            <mxPoint x="-140" y="414.52000000000004" as="targetPoint" />
          </mxGeometry>
        </mxCell>
        <mxCell id="_canREEYFn-2wOpyXf04-28" value="" style="endArrow=none;html=1;rounded=0;" edge="1" parent="1">
          <mxGeometry width="50" height="50" relative="1" as="geometry">
            <mxPoint x="-280" y="280" as="sourcePoint" />
            <mxPoint x="-140" y="280" as="targetPoint" />
          </mxGeometry>
        </mxCell>
        <mxCell id="_canREEYFn-2wOpyXf04-29" value="Extends" style="endArrow=block;endSize=16;endFill=0;html=1;rounded=0;" edge="1" parent="1">
          <mxGeometry width="160" relative="1" as="geometry">
            <mxPoint x="-280.14" y="279" as="sourcePoint" />
            <mxPoint x="-280.66999999999996" y="204" as="targetPoint" />
          </mxGeometry>
        </mxCell>
        <mxCell id="_canREEYFn-2wOpyXf04-30" value="" style="endArrow=open;endFill=1;endSize=12;html=1;rounded=0;" edge="1" parent="1">
          <mxGeometry width="160" relative="1" as="geometry">
            <mxPoint x="-420" y="420" as="sourcePoint" />
            <mxPoint x="-360" y="420" as="targetPoint" />
          </mxGeometry>
        </mxCell>
        <mxCell id="_canREEYFn-2wOpyXf04-31" value="Creates &amp;gt;" style="text;html=1;strokeColor=none;fillColor=none;align=center;verticalAlign=middle;whiteSpace=wrap;rounded=0;" vertex="1" parent="1">
          <mxGeometry x="-420" y="380" width="60" height="30" as="geometry" />
        </mxCell>
        <mxCell id="_canREEYFn-2wOpyXf04-32" value="ShinRamen" style="swimlane;fontStyle=1;align=center;verticalAlign=top;childLayout=stackLayout;horizontal=1;startSize=26;horizontalStack=0;resizeParent=1;resizeParentMax=0;resizeLast=0;collapsible=1;marginBottom=0;whiteSpace=wrap;html=1;" vertex="1" parent="1">
          <mxGeometry x="-1381" y="190" width="160" height="110" as="geometry" />
        </mxCell>
        <mxCell id="_canREEYFn-2wOpyXf04-33" value="- name: String" style="text;strokeColor=none;fillColor=none;align=left;verticalAlign=top;spacingLeft=4;spacingRight=4;overflow=hidden;rotatable=0;points=[[0,0.5],[1,0.5]];portConstraint=eastwest;whiteSpace=wrap;html=1;" vertex="1" parent="_canREEYFn-2wOpyXf04-32">
          <mxGeometry y="26" width="160" height="26" as="geometry" />
        </mxCell>
        <mxCell id="_canREEYFn-2wOpyXf04-34" value="" style="line;strokeWidth=1;fillColor=none;align=left;verticalAlign=middle;spacingTop=-1;spacingLeft=3;spacingRight=3;rotatable=0;labelPosition=right;points=[];portConstraint=eastwest;strokeColor=inherit;" vertex="1" parent="_canREEYFn-2wOpyXf04-32">
          <mxGeometry y="52" width="160" height="8" as="geometry" />
        </mxCell>
        <mxCell id="_canREEYFn-2wOpyXf04-35" value="+ ShinRamen()&lt;br&gt;+ packaging(): void&lt;br&gt;+ deliver(): void" style="text;strokeColor=none;fillColor=none;align=left;verticalAlign=top;spacingLeft=4;spacingRight=4;overflow=hidden;rotatable=0;points=[[0,0.5],[1,0.5]];portConstraint=eastwest;whiteSpace=wrap;html=1;" vertex="1" parent="_canREEYFn-2wOpyXf04-32">
          <mxGeometry y="60" width="160" height="50" as="geometry" />
        </mxCell>
        <mxCell id="_canREEYFn-2wOpyXf04-36" value="SesameRamen" style="swimlane;fontStyle=1;align=center;verticalAlign=top;childLayout=stackLayout;horizontal=1;startSize=26;horizontalStack=0;resizeParent=1;resizeParentMax=0;resizeLast=0;collapsible=1;marginBottom=0;whiteSpace=wrap;html=1;" vertex="1" parent="1">
          <mxGeometry x="-1140" y="190" width="160" height="110" as="geometry" />
        </mxCell>
        <mxCell id="_canREEYFn-2wOpyXf04-37" value="- name: String" style="text;strokeColor=none;fillColor=none;align=left;verticalAlign=top;spacingLeft=4;spacingRight=4;overflow=hidden;rotatable=0;points=[[0,0.5],[1,0.5]];portConstraint=eastwest;whiteSpace=wrap;html=1;" vertex="1" parent="_canREEYFn-2wOpyXf04-36">
          <mxGeometry y="26" width="160" height="26" as="geometry" />
        </mxCell>
        <mxCell id="_canREEYFn-2wOpyXf04-38" value="" style="line;strokeWidth=1;fillColor=none;align=left;verticalAlign=middle;spacingTop=-1;spacingLeft=3;spacingRight=3;rotatable=0;labelPosition=right;points=[];portConstraint=eastwest;strokeColor=inherit;" vertex="1" parent="_canREEYFn-2wOpyXf04-36">
          <mxGeometry y="52" width="160" height="8" as="geometry" />
        </mxCell>
        <mxCell id="_canREEYFn-2wOpyXf04-39" value="+ SesameRamen()&lt;br&gt;+ packaging(): void&lt;br&gt;+ deliver(): void" style="text;strokeColor=none;fillColor=none;align=left;verticalAlign=top;spacingLeft=4;spacingRight=4;overflow=hidden;rotatable=0;points=[[0,0.5],[1,0.5]];portConstraint=eastwest;whiteSpace=wrap;html=1;" vertex="1" parent="_canREEYFn-2wOpyXf04-36">
          <mxGeometry y="60" width="160" height="50" as="geometry" />
        </mxCell>
        <mxCell id="_canREEYFn-2wOpyXf04-40" value="ShinRamenFactory" style="swimlane;fontStyle=1;align=center;verticalAlign=top;childLayout=stackLayout;horizontal=1;startSize=26;horizontalStack=0;resizeParent=1;resizeParentMax=0;resizeLast=0;collapsible=1;marginBottom=0;whiteSpace=wrap;html=1;" vertex="1" parent="1">
          <mxGeometry x="-1401" y="40" width="200" height="80" as="geometry" />
        </mxCell>
        <mxCell id="_canREEYFn-2wOpyXf04-41" value="" style="line;strokeWidth=1;fillColor=none;align=left;verticalAlign=middle;spacingTop=-1;spacingLeft=3;spacingRight=3;rotatable=0;labelPosition=right;points=[];portConstraint=eastwest;strokeColor=inherit;" vertex="1" parent="_canREEYFn-2wOpyXf04-40">
          <mxGeometry y="26" width="200" height="8" as="geometry" />
        </mxCell>
        <mxCell id="_canREEYFn-2wOpyXf04-42" value="+ createShinRamen(): ShinRamen" style="text;strokeColor=none;fillColor=none;align=left;verticalAlign=top;spacingLeft=4;spacingRight=4;overflow=hidden;rotatable=0;points=[[0,0.5],[1,0.5]];portConstraint=eastwest;whiteSpace=wrap;html=1;" vertex="1" parent="_canREEYFn-2wOpyXf04-40">
          <mxGeometry y="34" width="200" height="46" as="geometry" />
        </mxCell>
        <mxCell id="_canREEYFn-2wOpyXf04-43" value="SesameRamenFactory" style="swimlane;fontStyle=1;align=center;verticalAlign=top;childLayout=stackLayout;horizontal=1;startSize=26;horizontalStack=0;resizeParent=1;resizeParentMax=0;resizeLast=0;collapsible=1;marginBottom=0;whiteSpace=wrap;html=1;" vertex="1" parent="1">
          <mxGeometry x="-1160" y="40" width="200" height="80" as="geometry" />
        </mxCell>
        <mxCell id="_canREEYFn-2wOpyXf04-44" value="" style="line;strokeWidth=1;fillColor=none;align=left;verticalAlign=middle;spacingTop=-1;spacingLeft=3;spacingRight=3;rotatable=0;labelPosition=right;points=[];portConstraint=eastwest;strokeColor=inherit;" vertex="1" parent="_canREEYFn-2wOpyXf04-43">
          <mxGeometry y="26" width="200" height="8" as="geometry" />
        </mxCell>
        <mxCell id="_canREEYFn-2wOpyXf04-45" value="+ createShinRamen(): ShinRamen" style="text;strokeColor=none;fillColor=none;align=left;verticalAlign=top;spacingLeft=4;spacingRight=4;overflow=hidden;rotatable=0;points=[[0,0.5],[1,0.5]];portConstraint=eastwest;whiteSpace=wrap;html=1;" vertex="1" parent="_canREEYFn-2wOpyXf04-43">
          <mxGeometry y="34" width="200" height="46" as="geometry" />
        </mxCell>
        <mxCell id="_canREEYFn-2wOpyXf04-46" value="" style="endArrow=open;endFill=1;endSize=12;html=1;rounded=0;" edge="1" parent="1">
          <mxGeometry width="160" relative="1" as="geometry">
            <mxPoint x="-1060.67" y="120" as="sourcePoint" />
            <mxPoint x="-1061" y="190" as="targetPoint" />
          </mxGeometry>
        </mxCell>
        <mxCell id="_canREEYFn-2wOpyXf04-47" value="" style="endArrow=open;endFill=1;endSize=12;html=1;rounded=0;" edge="1" parent="1">
          <mxGeometry width="160" relative="1" as="geometry">
            <mxPoint x="-1301.67" y="120" as="sourcePoint" />
            <mxPoint x="-1302" y="190" as="targetPoint" />
          </mxGeometry>
        </mxCell>
        <mxCell id="_canREEYFn-2wOpyXf04-48" value="Creates" style="text;html=1;strokeColor=none;fillColor=none;align=center;verticalAlign=middle;whiteSpace=wrap;rounded=0;" vertex="1" parent="1">
          <mxGeometry x="-1381" y="150" width="60" height="30" as="geometry" />
        </mxCell>
        <mxCell id="_canREEYFn-2wOpyXf04-49" value="Creates" style="text;html=1;strokeColor=none;fillColor=none;align=center;verticalAlign=middle;whiteSpace=wrap;rounded=0;" vertex="1" parent="1">
          <mxGeometry x="-1140" y="150" width="60" height="30" as="geometry" />
        </mxCell>
        <mxCell id="_canREEYFn-2wOpyXf04-50" value="&lt;b&gt;Before&lt;br&gt;Factory Method&lt;/b&gt;" style="text;html=1;strokeColor=none;fillColor=none;align=center;verticalAlign=middle;whiteSpace=wrap;rounded=0;" vertex="1" parent="1">
          <mxGeometry x="-1244.5" width="130" height="30" as="geometry" />
        </mxCell>
        <mxCell id="_canREEYFn-2wOpyXf04-51" value="&lt;b&gt;After&lt;br&gt;Factory Method&lt;/b&gt;" style="text;html=1;strokeColor=none;fillColor=none;align=center;verticalAlign=middle;whiteSpace=wrap;rounded=0;" vertex="1" parent="1">
          <mxGeometry x="-827" y="20" width="130" height="30" as="geometry" />
        </mxCell>
      </root>
    </mxGraphModel>
  </diagram>
</mxfile>
